<?xml version="1.0" standalone="no"?><!DOCTYPE svg PUBLIC "-//W3C//DTD SVG 1.1//EN" "http://www.w3.org/Graphics/SVG/1.1/DTD/svg11.dtd"><svg t="1613974639854" class="icon" viewBox="0 0 1024 1024" version="1.1" xmlns="http://www.w3.org/2000/svg" p-id="1501" xmlns:xlink="http://www.w3.org/1999/xlink" width="16" height="16"><defs><style type="text/css"></style></defs><path d="M910.222222 34.133333H113.777778A79.644444 79.644444 0 0 0 34.133333 113.777778v796.444444A79.644444 79.644444 0 0 0 113.777778 989.866667h796.444444a79.644444 79.644444 0 0 0 79.644445-79.644445V113.777778A79.644444 79.644444 0 0 0 910.222222 34.133333zM113.777778 79.644444h796.444444a34.133333 34.133333 0 0 1 34.133334 34.133334v796.444444a34.133333 34.133333 0 0 1-34.133334 34.133334H113.777778a34.133333 34.133333 0 0 1-34.133334-34.133334V113.777778a34.133333 34.133333 0 0 1 34.133334-34.133334z" p-id="1502"></path><path d="M792.632889 170.666667c31.402667 0 57.287111 23.893333 60.359111 54.499555l0.341333 6.257778v440.888889c0 31.459556-23.893333 57.344-54.499555 60.416l-6.257778 0.341333-59.562667-0.056889v53.873778c0 34.247111-25.884444 62.464-59.164444 66.048l-7.224889 0.398222h-429.511111A66.446222 66.446222 0 0 1 170.666667 786.887111v-429.511111c0-36.693333 29.752889-66.446222 66.446222-66.446222h53.816889V231.367111c0-31.402667 23.893333-57.287111 54.499555-60.359111L351.687111 170.666667h440.888889z m-126.008889 161.507555h-429.511111a25.201778 25.201778 0 0 0-25.201778 25.201778v429.511111c0 13.937778 11.264 25.201778 25.201778 25.201778h429.511111a25.201778 25.201778 0 0 0 25.201778-25.201778v-429.511111a25.201778 25.201778 0 0 0-25.201778-25.201778z m126.008889-120.263111H351.573333a19.456 19.456 0 0 0-19.171555 15.928889l-0.284445 3.527111-0.056889 59.562667h334.506667c34.247111 0 62.464 25.941333 66.048 59.164444l0.398222 7.281778-0.056889 334.449778h59.619556a19.456 19.456 0 0 0 19.171556-15.928889l0.284444-3.527111V231.367111a19.456 19.456 0 0 0-15.928889-19.171555l-3.527111-0.284445z" p-id="1503"></path></svg>