<?xml version="1.0" standalone="no"?><!DOCTYPE svg PUBLIC "-//W3C//DTD SVG 1.1//EN" "http://www.w3.org/Graphics/SVG/1.1/DTD/svg11.dtd"><svg t="1579152729645" class="icon" viewBox="0 0 1024 1024" version="1.1" xmlns="http://www.w3.org/2000/svg" p-id="2594" xmlns:xlink="http://www.w3.org/1999/xlink" width="128" height="128"><defs><style type="text/css"></style></defs><path d="M752.991573 989.498027a23.210667 23.210667 0 0 1-10.328746-2.389334l-231.891627-115.121493-231.91552 115.121493a23.261867 23.261867 0 0 1-33.19808-24.999253l43.9808-242.025813-186.555733-171.690667a23.26528 23.26528 0 0 1 12.5952-40.154453l258.93888-35.536214 115.551573-221.04064c8.011093-15.336107 33.153707-15.336107 41.188693 0l115.52768 221.04064 258.966187 35.536214a23.2448 23.2448 0 0 1 12.56448 40.154453l-186.55232 171.690667 43.987627 242.025813a23.210667 23.210667 0 0 1-22.852267 27.38176M170.868053 547.601067l159.65184 146.916693a23.118507 23.118507 0 0 1 7.1168 21.248l-37.976746 209.097387 200.768853-99.669334a23.296 23.296 0 0 1 20.650667 0l200.768853 99.669334-37.9904-209.097387a23.17312 23.17312 0 0 1 7.130453-21.248l159.65184-146.91328-221.907626-30.446933a23.11168 23.11168 0 0 1-17.42848-12.25728l-100.529494-192.303787-100.5568 192.300373a23.149227 23.149227 0 0 1-17.435306 12.25728l-221.92128 30.446934z" fill="" p-id="2595"></path><path d="M751.74912 454.550187a24.429227 24.429227 0 0 1-24.418987-24.4224V161.481387H287.730347v268.629333a24.4224 24.4224 0 0 1-48.8448 0V135.90528A23.248213 23.248213 0 0 1 262.11328 112.64h490.81344a23.23456 23.23456 0 0 1 23.25504 23.241387v294.229333a24.446293 24.446293 0 0 1-24.43264 24.4224" fill="" p-id="2596"></path><path d="M507.951787 333.120853a21.248 21.248 0 0 1-21.244587-21.25824v-106.2912a21.241173 21.241173 0 1 1 42.48576 0v106.287787a21.261653 21.261653 0 0 1-21.241173 21.261653" fill="" p-id="2597"></path></svg>