<?xml version="1.0" standalone="no"?><!DOCTYPE svg PUBLIC "-//W3C//DTD SVG 1.1//EN" "http://www.w3.org/Graphics/SVG/1.1/DTD/svg11.dtd"><svg t="1573720009302" class="icon" viewBox="0 0 1025 1024" version="1.1" xmlns="http://www.w3.org/2000/svg" p-id="7686" xmlns:xlink="http://www.w3.org/1999/xlink" width="128.125" height="128"><defs><style type="text/css"></style></defs><path d="M482.56 296.96c-15.36 10.24-40.96 10.24-56.32 0-15.36-15.36-15.36-40.96 0-61.44l168.96-168.96C641.28 25.6 707.84 0 769.28 0c143.36 0 256 112.64 256 250.88 0 66.56-25.6 128-71.68 179.2L769.28 614.4c-46.08 46.08-112.64 71.68-179.2 71.68-92.16 0-174.08-46.08-220.16-122.88-10.24-15.36-20.48-35.84-25.6-56.32-5.12-20.48 5.12-40.96 25.6-46.08 20.48-5.12 40.96 5.12 46.08 25.6 5.12 15.36 10.24 30.72 15.36 40.96 30.72 56.32 87.04 87.04 148.48 87.04 46.08 0 87.04-15.36 122.88-51.2l184.32-179.2c35.84-35.84 51.2-76.8 51.2-122.88 0-97.28-76.8-174.08-174.08-174.08-46.08 0-92.16 15.36-122.88 51.2L482.56 296.96z m61.44 430.08l-168.96 168.96c-66.56 66.56-184.32 66.56-245.76 0-66.56-66.56-66.56-179.2 0-245.76L308.48 465.92c35.84-35.84 81.92-51.2 122.88-51.2 46.08 0 92.16 15.36 122.88 51.2 10.24 10.24 20.48 20.48 25.6 35.84 10.24 10.24 15.36 25.6 15.36 40.96 5.12 20.48 30.72 35.84 46.08 25.6 20.48-5.12 35.84-30.72 25.6-46.08-5.12-20.48-15.36-40.96-25.6-56.32s-20.48-35.84-40.96-51.2c-51.2-46.08-112.64-71.68-179.2-71.68S303.36 363.52 252.16 409.6l-179.2 179.2c-97.28 97.28-97.28 261.12 0 358.4l5.12 5.12c97.28 97.28 261.12 92.16 358.4-5.12l168.96-168.96c15.36-15.36 15.36-40.96 0-56.32-20.48-10.24-46.08-10.24-61.44 5.12z" p-id="7687"></path></svg>