<?xml version="1.0" standalone="no"?><!DOCTYPE svg PUBLIC "-//W3C//DTD SVG 1.1//EN" "http://www.w3.org/Graphics/SVG/1.1/DTD/svg11.dtd"><svg t="1613974515586" class="icon" viewBox="0 0 1024 1024" version="1.1" xmlns="http://www.w3.org/2000/svg" p-id="1247" xmlns:xlink="http://www.w3.org/1999/xlink" width="16" height="16"><defs><style type="text/css"></style></defs><path d="M910.222222 34.133333H113.777778A79.644444 79.644444 0 0 0 34.133333 113.777778v796.444444A79.644444 79.644444 0 0 0 113.777778 989.866667h796.444444a79.644444 79.644444 0 0 0 79.644445-79.644445V113.777778A79.644444 79.644444 0 0 0 910.222222 34.133333zM113.777778 79.644444h796.444444a34.133333 34.133333 0 0 1 34.133334 34.133334v796.444444a34.133333 34.133333 0 0 1-34.133334 34.133334H113.777778a34.133333 34.133333 0 0 1-34.133334-34.133334V113.777778a34.133333 34.133333 0 0 1 34.133334-34.133334z" p-id="1248"></path><path d="M822.613333 355.555556v454.940444c0 39.367111-33.166222 71.281778-73.955555 71.281778H275.342222c-19.626667 0-38.513778-7.509333-52.337778-20.878222a69.688889 69.688889 0 0 1-21.617777-50.403556V355.555556h621.226666z m-44.373333 42.723555H245.76v412.273778c0 15.928889 13.198222 28.558222 29.639111 28.558222h473.201778c16.384-0.056889 29.639111-12.856889 29.639111-28.615111V398.279111z m-258.844444 99.555556c14.791111 0 22.186667 7.054222 22.186666 21.276444v227.555556c0 12.458667-5.688889 19.456-17.066666 21.048889l-5.12 0.284444c-14.791111 0-22.186667-7.111111-22.186667-21.333333v-227.555556c0-12.401778 5.688889-19.399111 16.952889-20.992l5.176889-0.341333z m-147.968 42.552889c14.791111 0 22.186667 7.168 22.186666 21.390222v184.888889c0 12.401778-5.632 19.399111-16.952889 20.992l-5.233777 0.284444-5.12-0.284444c-11.377778-1.592889-17.009778-8.533333-17.009778-21.048889V561.777778c0-12.458667 5.688889-19.456 17.009778-21.048889l5.12-0.341333z m295.879111-71.111112c14.791111 0 22.186667 7.168 22.186666 21.390223v256c0 12.401778-5.688889 19.399111-17.009777 20.992l-5.12 0.341333c-14.791111 0-22.186667-7.168-22.186667-21.390222V490.666667c0-12.458667 5.632-19.456 16.952889-21.048889l5.176889-0.341334zM512 142.222222c40.163556 0.910222 72.248889 32.483556 72.248889 71.111111 0 16.042667-5.518222 30.833778-14.791111 42.723556h290.133333c12.913778 0 20.195556 5.404444 21.845333 16.270222l0.341334 5.006222c0 14.222222-7.395556 21.333333-22.186667 21.333334H164.408889c-12.913778 0-20.195556-5.461333-21.845333-16.327111L142.222222 277.333333c0-14.222222 7.395556-21.333333 22.186667-21.333333h286.72a68.778667 68.778667 0 0 1-4.551111-78.734222c13.539556-22.186667 38.627556-35.612444 65.422222-35.043556z m0 42.666667a29.013333 29.013333 0 0 0-29.582222 28.444444c0 15.701333 13.255111 28.444444 29.582222 28.444445a29.013333 29.013333 0 0 0 29.582222-28.444445 29.013333 29.013333 0 0 0-29.582222-28.444444z" p-id="1249"></path></svg>