<?xml version="1.0" standalone="no"?><!DOCTYPE svg PUBLIC "-//W3C//DTD SVG 1.1//EN" "http://www.w3.org/Graphics/SVG/1.1/DTD/svg11.dtd"><svg t="1571282046043" class="icon" viewBox="0 0 1024 1024" version="1.1" xmlns="http://www.w3.org/2000/svg" p-id="2479" xmlns:xlink="http://www.w3.org/1999/xlink" width="64" height="64"><defs><style type="text/css"></style></defs><path d="M212.198 646.304L359.9 761.702c17.409 13.6 20.495 38.739 6.894 56.147-13.6 17.408-38.738 20.495-56.147 6.894L95.537 656.68A82.054 82.054 0 0 1 64 592.02C64 569.918 81.918 552 104.02 552H920c22.091 0 40 17.909 40 40s-17.909 40-40 40H217.123a8 8 0 0 0-4.925 14.304z m599.604-268.239L664.1 262.667c-17.409-13.6-20.495-38.738-6.894-56.147 13.6-17.408 38.738-20.494 56.147-6.894l215.11 168.063A82.054 82.054 0 0 1 960 432.35c0 22.103-17.918 40.02-40.02 40.02H104c-22.091 0-40-17.908-40-40 0-22.091 17.909-40 40-40h702.877a8 8 0 0 0 4.925-14.304z" p-id="2480"></path></svg>