<?xml version="1.0" standalone="no"?><!DOCTYPE svg PUBLIC "-//W3C//DTD SVG 1.1//EN" "http://www.w3.org/Graphics/SVG/1.1/DTD/svg11.dtd"><svg t="1570779584520" class="icon" viewBox="0 0 1024 1024" version="1.1" xmlns="http://www.w3.org/2000/svg" p-id="2507" xmlns:xlink="http://www.w3.org/1999/xlink" width="64" height="64"><defs><style type="text/css"></style></defs><path d="M938.666667 982.613333H85.333333c-47.061333 0-85.333333-38.272-85.333333-85.333333V384c0-47.061333 38.272-85.333333 85.333333-85.333333h853.333334c47.061333 0 85.333333 38.272 85.333333 85.333333v513.28c0 47.061333-38.272 85.333333-85.333333 85.333333z m0-85.333333v42.666667-42.666667zM85.333333 384v513.28h853.205334L938.666667 384H85.333333z" p-id="2508"></path><path d="M85.333333 403.541333H0V122.666667c0-47.061333 38.272-85.333333 85.333333-85.333334h342.656c47.061333 0 85.333333 38.272 85.333334 85.333334v88.021333h-85.333334V122.666667H85.333333v280.874666z" p-id="2509"></path><path d="M1024 415.104h-85.333333V210.688H470.656v-85.333333H938.666667c47.061333 0 85.333333 38.272 85.333333 85.333333v204.416z" p-id="2510"></path></svg>