<?xml version="1.0" standalone="no"?><!DOCTYPE svg PUBLIC "-//W3C//DTD SVG 1.1//EN" "http://www.w3.org/Graphics/SVG/1.1/DTD/svg11.dtd"><svg t="1573719916596" class="icon" viewBox="0 0 1024 1024" version="1.1" xmlns="http://www.w3.org/2000/svg" p-id="6596" xmlns:xlink="http://www.w3.org/1999/xlink" width="128" height="128"><defs><style type="text/css"></style></defs><path d="M481.7 893.6l0.3 22.4H170.4v-22.3h311.3m6.6-42.6H163.6c-19.8-0.1-35.9 16-36 35.8v36H90.2v35.6h471.2v-35.6h-36.9v-36c-0.1-19.8-16.2-35.9-36-35.8h-0.2zM660.1 341.8l-157-160c-26.7-23.7-29.2-64.6-5.5-91.3 0.7-0.8 1.4-1.6 2.2-2.3l11.7-10.6c29.6-23.1 72.1-19.3 97.1 8.8l157 160c26.7 23.7 29.2 64.5 5.5 91.3-0.7 0.8-1.4 1.6-2.2 2.4l-11.7 10.6c-29.6 23.1-72.1 19.2-97.1-8.9z m70.4-89.8L600.8 119.7c-16.1-18.1-43.6-20.6-62.7-5.7-16.1 16.5-15.9 42.9 0.6 59 0.5 0.5 1 1 1.5 1.4L670 306.8c16.1 18.1 43.6 20.6 62.7 5.7 16.1-16.5 15.9-42.9-0.6-59-0.5-0.5-1.1-1-1.6-1.5zM303 645.5l-157-160c-26.7-23.7-29.2-64.5-5.5-91.3 0.7-0.8 1.4-1.6 2.2-2.4l11.7-10.6c29.6-23.2 72.2-19.3 97.1 8.8l157 160c26.7 23.7 29.2 64.5 5.5 91.3-0.7 0.8-1.4 1.6-2.2 2.4l-11.7 10.8c-29.5 23.1-72.1 19.2-97.1-9z m70.4-89.8L243.7 423.4c-16.1-18.1-43.6-20.6-62.7-5.7-16.1 16.5-15.8 43 0.7 59.1 0.5 0.5 1 0.9 1.5 1.4l129.7 132.3c16.1 18.1 43.6 20.6 62.7 5.7 16.2-16.5 15.9-42.9-0.5-59.1-0.5-0.5-1.1-1-1.7-1.4zM227.3 353.8l232.3-216.2c18.6-11.3 42.8-6.2 55.2 11.7l156.3 167.4c17 13.6 20.4 38.1 7.8 55.8L446.6 588.7c-18.6 11.3-42.8 6.2-55.2-11.7L235.1 409.6c-17-13.6-20.4-38.1-7.8-55.8z m155.6 170.6c12.4 17.9 36.6 23 55.2 11.7l185.8-172.9c12.6-17.7 9.2-42.2-7.8-55.8l-94.5-101.3c-12.4-17.9-36.6-23-55.2-11.7L280.6 367.3c-12.6 17.7-9.2 42.2 7.8 55.8l94.5 101.3z m208.7-70.7l327.8 325.4c21.2 5.6 37.6 206.2-108.2 131L516.9 523.2l22.7-21.1 304.2 383s62.2 5.4 48.7-64.5L567.9 475.8" p-id="6597"></path></svg>