<?xml version="1.0" standalone="no"?><!DOCTYPE svg PUBLIC "-//W3C//DTD SVG 1.1//EN" "http://www.w3.org/Graphics/SVG/1.1/DTD/svg11.dtd"><svg t="1619011197275" class="icon" viewBox="0 0 1024 1024" version="1.1" xmlns="http://www.w3.org/2000/svg" p-id="4740" xmlns:xlink="http://www.w3.org/1999/xlink" width="200" height="200"><defs><style type="text/css"></style></defs><path d="M170.65984 42.65984l682.65984 0q53.00224 0 90.50112 37.49888t37.49888 90.50112l0 682.65984q0 53.00224-37.49888 90.50112t-90.50112 37.49888l-682.65984 0q-53.00224 0-90.50112-37.49888t-37.49888-90.50112l0-682.65984q0-53.00224 37.49888-90.50112t90.50112-37.49888zM341.34016 896l0-512-213.34016 0 0 469.34016q0 17.67424 12.4928 30.16704t30.16704 12.4928l170.65984 0zM896 853.34016l0-469.34016-469.34016 0 0 512 426.65984 0q17.67424 0 30.16704-12.4928t12.4928-30.16704zM853.34016 128l-682.65984 0q-17.67424 0-30.16704 12.4928t-12.4928 30.16704l0 128 768 0 0-128q0-17.67424-12.4928-30.16704t-30.16704-12.4928z" p-id="4741"></path></svg>