<?xml version="1.0" standalone="no"?><!DOCTYPE svg PUBLIC "-//W3C//DTD SVG 1.1//EN" "http://www.w3.org/Graphics/SVG/1.1/DTD/svg11.dtd"><svg t="1613962051558" class="icon" viewBox="0 0 1024 1024" version="1.1" xmlns="http://www.w3.org/2000/svg" p-id="865" xmlns:xlink="http://www.w3.org/1999/xlink" width="16" height="16"><defs><style type="text/css"></style></defs><path d="M485.602647 1022.274265A473.810124 473.810124 0 0 1 0.862867 560.224705a462.752637 462.752637 0 0 1 300.917047-427.598777 52.283378 52.283378 0 0 1 17.001685-2.684476 49.023656 49.023656 0 0 1 50.11023 47.80925 48.064915 48.064915 0 0 1-33.428125 45.316522 366.622808 366.622808 0 0 0-233.996879 337.285313 384.966731 384.966731 0 0 0 768.97472 0 366.622808 366.622808 0 0 0-233.996879-337.285313 48.064915 48.064915 0 0 1-33.428125-45.380438 49.023656 49.023656 0 0 1 50.11023-47.745334c5.688534 0 11.313151 0.894826 16.682105 2.684476a462.752637 462.752637 0 0 1 300.917046 427.598777 473.810124 473.810124 0 0 1-485.123275 462.113476z m0-493.943699a49.023656 49.023656 0 0 1-50.110231-47.80925V50.174146a50.174146 50.174146 0 0 1 100.348293 0v430.411086a49.023656 49.023656 0 0 1-50.238062 47.745334z" p-id="866"></path></svg>