<?xml version="1.0" standalone="no"?><!DOCTYPE svg PUBLIC "-//W3C//DTD SVG 1.1//EN" "http://www.w3.org/Graphics/SVG/1.1/DTD/svg11.dtd"><svg t="1562036060513" class="icon" viewBox="0 0 1070 1024" version="1.1" xmlns="http://www.w3.org/2000/svg" p-id="9969" xmlns:xlink="http://www.w3.org/1999/xlink" width="66.875" height="64"><defs><style type="text/css"></style></defs><path d="M883.665 0H119.156c-47.01 0-85.643 38.493-85.643 85.318v831.534c0 46.825 38.632 85.179 85.643 85.179h462.336a327.494 327.494 0 0 1-91.694-227.794c0-20.34 1.815-39.191 5.4-59.997h-89.322c-23.272 0-42.356-19.27-42.356-42.729s18.944-42.822 42.356-42.822h117.528a332.567 332.567 0 0 1 113.338-128.232H405.876c-23.272 0-42.356-18.153-42.356-41.612s18.944-41.612 42.356-41.612h329.31c19.735 0 36.212 12.847 40.96 30.953a332.614 332.614 0 0 1 193.629 32.117V85.364A86.295 86.295 0 0 0 883.619 0zM266.938 713.449a42.45 42.45 0 1 1 0-84.853 42.45 42.45 0 1 1 0 84.853z m0-212.992a42.45 42.45 0 1 1 0-84.853 42.45 42.45 0 1 1 0 84.853z m0-213.039a42.45 42.45 0 1 1 0-84.806 42.45 42.45 0 1 1 0 84.806z m468.247 0.373H405.876c-23.272 0-42.356-18.153-42.356-41.612s18.944-41.612 42.356-41.612h329.31c23.319 0 42.356 18.153 42.356 41.612a41.798 41.798 0 0 1-42.357 41.612z m85.039 237.521c-138.054 0-249.856 111.383-249.856 248.925S682.17 1023.21 820.224 1023.21s249.856-111.43 249.856-248.972c0-137.402-111.942-248.925-249.856-248.925zM964.98 842.566H825.716c-1.629 0-3.49 0.233-5.12 0.233a42.03 42.03 0 0 1-42.216-42.217V630.69c0-23.226 18.804-42.17 42.356-42.17s42.356 18.85 42.356 42.17v128.652h102.075c23.272 0 42.356 18.152 42.356 41.611a41.798 41.798 0 0 1-42.496 41.612z" p-id="9970"></path></svg>