<?xml version="1.0" standalone="no"?><!DOCTYPE svg PUBLIC "-//W3C//DTD SVG 1.1//EN" "http://www.w3.org/Graphics/SVG/1.1/DTD/svg11.dtd"><svg t="1573720362511" class="icon" viewBox="0 0 1092 1024" version="1.1" xmlns="http://www.w3.org/2000/svg" p-id="11397" xmlns:xlink="http://www.w3.org/1999/xlink" width="136.5" height="128"><defs><style type="text/css"></style></defs><path d="M482.684421 736.298269H225.661784a21.134487 21.134487 0 0 0-21.816245 21.134487v162.258323a21.134487 21.134487 0 0 0 21.816245 21.134487h257.022637a21.134487 21.134487 0 0 0 21.816245-21.134487v-162.258323a21.134487 21.134487 0 0 0-21.816245-21.134487zM482.684421 477.23036H225.661784a21.134487 21.134487 0 0 0-21.134487 21.134487v162.258322a21.134487 21.134487 0 0 0 21.816245 21.134487h256.340879a21.134487 21.134487 0 0 0 21.816245-21.134487V498.364847A21.134487 21.134487 0 0 0 482.684421 477.23036z" p-id="11398"></path><path d="M1066.268975 308.836218h-287.701731l-43.63249-26.588548v-27.952064h126.806924a40.223702 40.223702 0 0 0 39.541944-40.90546V40.905459a40.223702 40.223702 0 0 0-39.541944-40.905459H545.406125a40.223702 40.223702 0 0 0-39.541944 40.905459v172.484687a40.223702 40.223702 0 0 0 39.541944 40.90546h128.17044v28.633821l-43.63249 26.588549H293.83755v-4.090546l-5.454061-18.407457a90.673768 90.673768 0 0 1 0-48.404793l9.544607-26.588549a126.806924 126.806924 0 0 0 6.135819-49.086551v-25.906791A28.633822 28.633822 0 0 0 272.703063 113.171771H204.527297a28.633822 28.633822 0 0 0-27.270306 25.225033v25.906791a126.806924 126.806924 0 0 0 6.135819 49.086551l9.544607 26.588549a90.673768 90.673768 0 0 1 0 48.404794l-5.454061 18.407456v4.090546H24.543276a25.225033 25.225033 0 0 0-24.543276 23.861518v68.175766a25.225033 25.225033 0 0 0 24.543276 25.225033h24.543275a25.225033 25.225033 0 0 1 24.543276 25.225034v545.406125a25.225033 25.225033 0 0 0 24.543276 25.225033h24.543275a25.225033 25.225033 0 0 0 24.543276-25.225033v-545.406125a25.225033 25.225033 0 0 1 24.543275-25.225034h746.524634a25.225033 25.225033 0 0 1 24.543276 25.225034v545.406125a25.225033 25.225033 0 0 0 24.543276 25.225033h24.543275a25.225033 25.225033 0 0 0 24.543276-25.225033v-545.406125a25.225033 25.225033 0 0 1 24.543275-25.225034h24.543276a25.225033 25.225033 0 0 0 25.225033-27.270306v-68.175766a25.225033 25.225033 0 0 0-24.543275-23.861518z" p-id="11399"></path><path d="M899.920107 498.364847a21.134487 21.134487 0 0 0-21.816245-21.134487H621.762983a21.134487 21.134487 0 0 0-21.816245 21.134487v421.326232a21.134487 21.134487 0 0 0 21.816245 21.134487h256.340879a21.134487 21.134487 0 0 0 21.816245-21.134487z" p-id="11400"></path></svg>