<?xml version="1.0" standalone="no"?><!DOCTYPE svg PUBLIC "-//W3C//DTD SVG 1.1//EN" "http://www.w3.org/Graphics/SVG/1.1/DTD/svg11.dtd"><svg t="1570772734287" class="icon" viewBox="0 0 1024 1024" version="1.1" xmlns="http://www.w3.org/2000/svg" p-id="2997" xmlns:xlink="http://www.w3.org/1999/xlink" width="64" height="64"><defs><style type="text/css"></style></defs><path d="M835.2 148.48h-116.352v-70.4A78.208 78.208 0 0 0 640.704 0H382.976a78.208 78.208 0 0 0-78.144 78.144v70.4H188.8a172.8 172.8 0 0 0-172.8 172.8V851.2A172.8 172.8 0 0 0 188.8 1024h646.4a172.8 172.8 0 0 0 172.8-172.8V321.088a172.8 172.8 0 0 0-172.8-172.608z m-468.48-70.4a16.64 16.64 0 0 1 16.384-16.384h257.728a16.64 16.64 0 0 1 16.384 16.384v70.4h-290.56zM188.8 210.24h646.4a110.976 110.976 0 0 1 110.848 110.848v80H77.76v-80A110.912 110.912 0 0 1 188.8 210.24z m295.616 252.544h55.296V598.4a27.648 27.648 0 0 1-55.296 0z m350.912 499.2H188.8A110.976 110.976 0 0 1 77.76 851.2V462.784h344.832V598.4a89.6 89.6 0 0 0 178.752 0V462.784h344.832V851.2a111.232 111.232 0 0 1-110.976 111.04z" p-id="2998"></path></svg>