<?xml version="1.0" standalone="no"?><!DOCTYPE svg PUBLIC "-//W3C//DTD SVG 1.1//EN" "http://www.w3.org/Graphics/SVG/1.1/DTD/svg11.dtd"><svg t="1570780174278" class="icon" viewBox="0 0 1095 1024" version="1.1" xmlns="http://www.w3.org/2000/svg" p-id="6390" xmlns:xlink="http://www.w3.org/1999/xlink" width="68.4375" height="64"><defs><style type="text/css"></style></defs><path d="M487.562705 109.518717c-2.737968 0-2.737968 0 0 0M224.717786 229.989305h2.737968v-2.737968l-2.737968 2.737968m219.037433 76.663101v2.737968h2.737968l-2.737968-2.737968m197.13369 0v2.737968l2.737968-2.737968h-2.737968m-240.941177 54.759359v2.737968h2.737968l-2.737968-2.737968m-76.663101 104.04278h2.737968l-2.737968-2.737967v2.737967m208.085561 35.593583v2.737968h2.737968l-2.737968-2.737968m197.13369 328.55615c0-2.737968 0-2.737968 0 0M238.407625 900.791444l2.737968 2.737968c0-2.737968 0-5.475936-2.737968-2.737968m301.176471 16.427807c0-2.737968 0-2.737968 0 0m-202.609626 95.828877h2.737968v2.737968l-2.737968-2.737968" p-id="6391"></path><path d="M799.691048 2.737968h2.737968l-2.737968-2.737968v2.737968m-52.021391 13.689839v2.737968l2.737968-2.737968h-2.737968m-87.614973 30.117648h2.737968v-2.737968l-2.737968 2.737968m-158.802139 57.497326s0 2.737968 0 0m158.802139 13.689839c-2.737968 2.737968-2.737968 2.737968 0 0 0-2.737968 0-2.737968 0 0m-13.68984 2.737968l-2.737967 2.737968v2.737968l2.737967-5.475936M372.568053 147.850267h2.737968v-2.737968l-2.737968 2.737968M271.26324 183.44385v2.737968l2.737968-2.737968h-2.737968m-27.379679 10.951872h2.737968v-2.737968l-2.737968 2.737968m169.754011 10.951872c-2.737968 2.737968-2.737968 2.737968 0 0l2.737968-2.737968-2.737968 2.737968m-213.561498 5.475935v2.737968l2.737968-2.737968h-2.737968m169.754011 21.903744l5.475936 5.475936-2.737968-2.737968-2.737968-2.737968M183.648267 265.582888v2.737968l2.737968-2.737968h-2.737968m512 0v2.737968h2.737968v-2.737968h-2.737968m-24.641711 16.427807h2.737968v-2.737968l-2.737968 2.737968m405.219251 2.737968l2.737968 2.737968v-5.475936l-2.737968 2.737968m-826.86631 8.213904l2.737968 2.737968v-2.737968h-2.737968m501.048128 21.903743v2.737968l2.737968-2.737968h-2.737968m-465.454545 2.737968h2.737968-2.737968m5.475936 5.475936h2.737968l-2.737968-2.737968v2.737968m424.385026 8.213904c-2.737968 2.737968-2.737968 2.737968 0 0l2.737968-2.737968-2.737968 2.737968m364.149733 19.165775l2.737968 2.737968-2.737968-5.475936v2.737968m-843.294118 10.951872l2.737968 2.737968s-2.737968 0 0 0l-2.737968-2.737968m846.032086 5.475936c0 2.737968 0 2.737968 0 0v-2.737968 2.737968m-744.727273 2.737967h2.737968-2.737968m583.187166 8.213904v2.737968h2.737968l-2.737968-2.737968m-501.048128 13.68984h2.737968-2.737968m424.385026 19.165775h2.737968v-2.737968l-2.737968 2.737968m-555.807486 2.737968h2.737968l-2.737968-2.737968v2.737968m2.737968 5.475936l2.737968 2.737968v-2.737968h-2.737968m421.647058 16.427807l-2.737967-2.737968 2.737967 2.737968m-79.401069 2.737968l2.737968 2.737968c2.737968 0 2.737968 0 0 0l-2.737968-2.737968m-569.497326 5.475936v-2.737968 2.737968m1024 5.475936s0 2.737968 0 0v-2.737968 2.737968m-273.796792 5.475936c-2.737968 2.737968 0 2.737968 0 0 2.737968 0 2.737968 0 0 0m-416.171123 10.951871h2.737968-2.737968m57.497326 5.475936l2.737968 2.737968v-2.737968h-2.737968m265.582888 10.951872h2.737968l-2.737968-2.737968v2.737968m-312.128342 10.951872v2.737968h2.737968l-2.737968-2.737968m616.042781 21.903743v2.737968h2.737968l-2.737968-2.737968m-191.657754 5.475936v2.737968l2.737968-2.737968h-2.737968m260.106952 8.213903c0-2.737968 0 0 0 0m-925.433156 2.737968l2.737968 2.737968-2.737968-2.737968m13.68984 5.475936h2.737968l2.737968 2.737968-2.737968-2.737968h-2.737968m566.759358 19.165776v2.737968c-2.737968 0-2.737968 2.737968 0 0l2.737968-2.737968h-2.737968m-93.090909 27.379679h2.737968c0 2.737968 0 2.737968 0 0h-2.737968c0-2.737968 0-2.737968 0 0m76.663102 10.951871l2.737968 2.737968-2.737968-2.737968m295.700535 2.737968l2.737968 2.737968h2.737967l-5.475935-2.737968m-366.887701 21.903744v2.737968l2.737968-2.737968h-2.737968c0-2.737968 0-2.737968 0 0m5.475936 35.593583h2.737968l-2.737968-2.737968v2.737968m76.663101 10.951871h2.737968v-2.737968l-2.737968 2.737968m290.224599 16.427808h2.737968c2.737968 0 2.737968 0 0 0h-2.737968m-794.010695 8.213903l2.737968 2.737968c2.737968 0 2.737968 0 0 0l-2.737968-2.737968m-139.636363 8.213904l2.737968 2.737968-2.737968-2.737968m8.213903 10.951872l2.737968 2.737968v-2.737968h-2.737968m21.903744 10.951871l2.737968 2.737968v-2.737968h-2.737968m955.550802 16.427808v2.737968l2.737968-2.737968h-2.737968m-799.486631 30.117647c2.737968-2.737968 2.737968-2.737968 0 0m-213.561498 68.449198h-2.737967 5.475935-2.737968m646.160428 0l2.737968-2.737968-2.737968 2.737968m104.042781 21.903743v2.737968l2.737968-2.737968h-2.737968M30.322064 889.839572l2.737968 2.737968v-2.737968h-2.737968c0-2.737968 0-2.737968 0 0m542.117647 10.951872h2.737968v-2.737968l-2.737968 2.737968m-465.454546 19.165775h2.737968s-2.737968 0 0 0l-2.737968-2.737968v2.737968m525.68984 24.641711v2.737968l2.737968-2.737968h-2.737968m-449.026738 5.475936l2.737968 2.737968c2.737968 0 2.737968 0 0 0l-2.737968-2.737968m52.02139 21.903744h2.737968l-2.737968-2.737968v2.737968m273.796792 30.117647v2.737968l2.737968-2.737968h-2.737968m-145.1123 19.165775v2.737968l2.737968-2.737968h-2.737968" p-id="6392"></path><path d="M807.904951 65.71123l-2.737967 2.737968 2.737967-2.737968 2.737968-2.737968-2.737968 2.737968m-8.213903 177.967914l5.475936 5.475936v-2.737968h-2.737968v-2.737968h-2.737968m38.331551 10.951872v2.737968h2.737967v-2.737968h-2.737967m-131.42246 5.475936v2.737968l2.737968-2.737968h-2.737968M104.247197 265.582888h-2.737967v2.737968l2.737967-2.737968c0-2.737968 0 0 0 0m208.085562 10.951871l2.737968 2.737968v-2.737968s-2.737968 0 0 0l-2.737968-2.737968v2.737968m-240.941177 0v2.737968l2.737968-2.737968h-2.737968m65.71123 49.283423l2.737968 2.737968c2.737968 0 2.737968 0 0 0v-2.737968h-2.737968m-73.925133 125.946524c0-2.737968 0 0 0 0m1026.737968 60.235294v2.737968h2.737968l-2.737968-2.737968m-292.962567 30.117647v2.737968l2.737968-2.737968h-2.737968M128.888909 588.663102c-2.737968 0 0 0 0 0 0-2.737968 0-2.737968 0 0m172.491978 13.689839l2.737968 2.737968c-2.737968 0-2.737968 0 0 0l-2.737968-2.737968m0 5.475936v2.737968h2.737968v-2.737968h-2.737968m-65.71123 19.165775l2.737968 2.737968c2.737968 2.737968 2.737968 2.737968 0 0l-2.737968-2.737968m506.524064 32.855615v8.213904l2.737968-2.737968-2.737968-5.475936M128.888909 720.085561c-2.737968 0 0 0 0 0l2.737968 2.737968-2.737968-2.737968m835.080214 0h-2.737968v2.737968l2.737968-2.737968m-659.850268 16.427808c0-2.737968 0-2.737968 0 0m717.347594 30.117647v2.737968l2.737968-2.737968h-2.737968m-246.417113 41.069519h-2.737967v2.737968c-2.737968 0-2.737968 0 0 0l2.737967-2.737968m57.497327 46.545454v2.737968l2.737968-2.737968h-2.737968M54.963775 900.791444l5.475936 2.737968-2.737968-2.737968v-2.737968l-2.737968 2.737968m27.379679 8.213904c-2.737968 2.737968 2.737968 5.475936 2.737968 2.737968h-2.737968v-2.737968m618.780749 5.475935l-2.737968 2.737968 5.475936-2.737968h-2.737968m-358.673797 27.37968v2.737967h2.737968l-2.737968-2.737967m-54.759358 49.283422l2.737968 2.737968-2.737968-2.737968c-2.737968-2.737968-2.737968-2.737968 0 0m24.641711 10.951872l2.737968 2.737968v-2.737968h-2.737968" p-id="6393"></path><path d="M717.55201 27.379679h2.737968V24.641711l-2.737968 2.737968M328.760566 164.278075v2.737968l2.737968-2.737968h-2.737968M208.289978 271.058824l2.737968 2.737967-2.737968-2.737967c-2.737968-2.737968-2.737968-2.737968 0 0m427.122995 43.807486h2.737968v-2.737968l-2.737968 2.737968m-503.786096 10.951872v2.737968l2.737967-2.737968h-2.737967m580.449197 10.951871l-2.737967 2.737968 2.737967-2.737968v-2.737967 2.737967M246.621529 369.625668v2.737968h2.737968l-2.737968-2.737968m-183.44385 101.304813v8.213904a172.491979 172.491979 0 0 0 0-8.213904m273.796791 21.903744l2.737968 2.737968v-2.737968h-2.737968m-194.395722 27.379679l2.737968 2.737968c0 2.737968 0 2.737968 0 0l-2.737968-2.737968c-2.737968 0-2.737968 0 0 0m10.951872 76.663101h2.737968c0 2.737968 0 2.737968 0 0h-2.737968m829.604278 114.994653v2.737968l2.737968-2.737968h-2.737968m-188.919786 87.614973v2.737968l2.737968-2.737968h-2.737968M0.204417 865.197861h2.737968v-2.737968l-2.737968 2.737968m605.090909 21.903743h2.737968v-2.737968l-2.737968 2.737968m150.588235 2.737968v2.737968l2.737968-2.737968v-2.737968l-2.737968 2.737968" p-id="6394"></path><path d="M802.429016 2.737968h-13.68984l-13.68984 2.737968c0 2.737968-8.213904 5.475936-10.951871 2.737968l-2.737968 2.737968-5.475936 2.737968-5.475936 2.737967-8.213904 2.737968-8.213903 2.737968-8.213904 2.737968-5.475936 2.737968h-5.475936c-8.213904 0-10.951872 2.737968-10.951871 5.475936h-5.475936c-5.475936 0-8.213904 2.737968-8.213904 5.475936h-8.213904c-5.475936 0-8.213904 2.737968-8.213903 5.475936h-5.475936l-5.475936 2.737968h-2.737968 2.737968l-8.213904 2.737967-5.475936 2.737968-5.475935 2.737968-8.213904 2.737968-10.951872 2.737968-8.213904 2.737968-5.475935 2.737968h-5.475936l-8.213904 2.737968-5.475936 2.737968-8.213904 2.737968c-5.475936 0-8.213904 2.737968-8.213903 5.475936h-5.475936l-8.213904 2.737967-5.475936 2.737968-10.951871 2.737968-5.475936 2.737968a52.02139 52.02139 0 0 0-8.213904 0v2.737968l-5.475936 2.737968-8.213903 2.737968-8.213904 2.737968-5.475936 2.737968-13.68984 2.737968-8.213903 2.737968-8.213904 2.737967-5.475936 2.737968-8.213904 2.737968-5.475936 2.737968-8.213903 2.737968-8.213904 2.737968-8.213904 2.737968-5.475936 2.737968-8.213903 2.737968-8.213904 2.737968-5.475936 2.737968h-10.951872l-5.475935 5.475935h-5.475936l-8.213904 2.737968-5.475936 2.737968-8.213904 2.737968-8.213903 2.737968-5.475936 2.737968-8.213904 2.737968-5.475936 2.737968-8.213903 2.737968-8.213904 2.737968-5.475936 2.737968-10.951872 2.737968-5.475935 2.737967-8.213904 2.737968-5.475936 2.737968h-5.475936l-2.737968 2.737968h2.737968-8.213904l-5.475935 2.737968-8.213904 2.737968-5.475936 2.737968-10.951872 2.737968-8.213903 2.737968-2.737968 2.737968-8.213904 2.737968-8.213904 2.737967-5.475936 2.737968-2.737968 2.737968-2.737967 2.737968h2.737967v2.737968c-2.737968 0-2.737968 0 0 0l2.737968 2.737968h5.475936l5.475936 2.737968 8.213904 2.737968 5.475936 2.737968 5.475935 2.737968 8.213904 2.737968 8.213904 2.737968 5.475936 2.737967 5.475936 2.737968c2.737968 0 5.475936 0 2.737967 2.737968l10.951872 2.737968c0-2.737968 0 0 0 0l2.737968 2.737968 5.475936 2.737968 5.475936 2.737968 2.737968 2.737968 5.475935 2.737968 5.475936 2.737968 2.737968 2.737968 2.737968 2.737968 2.737968 2.737967 5.475936 2.737968 2.737968 2.737968 2.737968 2.737968 2.737968 2.737968h2.737968l5.475935 2.737968 2.737968 2.737968 5.475936 2.737968 2.737968 2.737968 2.737968 2.737968v2.737968l2.737968 2.737968 2.737968 2.737967 2.737968 2.737968 2.737968 2.737968 2.737967 2.737968 2.737968 2.737968 2.737968 2.737968 2.737968 2.737968h2.737968l2.737968 2.737968 2.737968 2.737968 2.737968 2.737968 2.737968 2.737968v2.737967l2.737968 5.475936 2.737968 5.475936 2.737968 2.737968 2.737967 2.737968 2.737968 2.737968 2.737968 2.737968 2.737968 2.737968h2.737968l2.737968 8.213903 2.737968 2.737968 2.737968 2.737968 2.737968 5.475936v2.737968l2.737968 2.737968c-2.737968 0 0 0 0 0v2.737968l2.737968 2.737968 2.737968 5.475936 2.737967 5.475935 2.737968 2.737968 2.737968 5.475936 2.737968 5.475936 2.737968 2.737968v2.737968l2.737968 5.475936 2.737968 5.475935 2.737968 5.475936 2.737968 5.475936c-2.737968 0-2.737968 0 0 0l2.737968 8.213904 2.737968 5.475936 2.737967 5.475936 2.737968 8.213903v8.213904l2.737968 8.213904v2.737968l2.737968 2.737968v8.213903l2.737968 10.951872 2.737968 2.737968v473.668449h2.737968l2.737968 5.475936 2.737968 2.737968v2.737968h2.737968l2.737968 2.737968c-2.737968 0-2.737968 0 0 0l2.737968 2.737968 24.641711-2.737968h2.737968-2.737968l5.475936-2.737968 8.213903-2.737968 5.475936-2.737968 5.475936-2.737968 5.475936-2.737968 5.475936-2.737968h5.475935l5.475936-2.737968 5.475936-2.737968 5.475936-2.737968 5.475936-2.737967 5.475936-2.737968 2.737968-2.737968h2.737967l5.475936-2.737968 5.475936-2.737968 5.475936-2.737968 5.475936-2.737968 5.475936-2.737968 5.475935-2.737968 5.475936-2.737968h5.475936l5.475936-2.737968 5.475936-2.737968 5.475936-2.737967h2.737967l5.475936-2.737968 5.475936-2.737968 5.475936-2.737968 5.475936-2.737968 5.475936-2.737968 5.475935-2.737968 2.737968-2.737968 5.475936-2.737968 5.475936-2.737968 8.213904-2.737968 5.475936-2.737967h5.475935l5.475936-2.737968 5.475936-5.475936h5.475936l5.475936-2.737968v-2.737968h5.475936l5.475935-2.737968 5.475936-2.737968 5.475936-2.737968 5.475936-2.737968 5.475936-2.737968h2.737968l2.737968-2.737968 8.213903-2.737967 2.737968-2.737968 8.213904-2.737968 2.737968-2.737968 5.475936-2.737968h5.475936l5.475935-2.737968 5.475936-2.737968 5.475936-2.737968 5.475936-2.737968 5.475936-2.737968 8.213903-2.737968 5.475936-2.737968 5.475936-2.737967 5.475936-2.737968 5.475936-2.737968 5.475936-2.737968 2.737967-2.737968 5.475936-2.737968h5.475936l8.213904-2.737968v-2.737968c-2.737968 0-2.737968 0 0 0h5.475936l5.475936-2.737968 2.737967-2.737968 8.213904-2.737968 5.475936-2.737967 5.475936-2.737968 10.951872-2.737968v-2.737968l5.475935-2.737968h5.475936v-2.737968l5.475936-2.737968 8.213904-2.737968 2.737968-2.737968 8.213903-2.737968h2.737968l8.213904-2.737968 5.475936-2.737968 2.737968-2.737967 5.475936-2.737968 5.475935-2.737968 5.475936-2.737968 5.475936-2.737968 5.475936-2.737968 5.475936-2.737968 8.213904-2.737968 5.475935-2.737968 5.475936-2.737968 5.475936-2.737968 5.475936-2.737968 5.475936-2.737967h5.475935l5.475936-2.737968 5.475936-2.737968 2.737968-2.737968 5.475936-2.737968 2.737968-2.737968 5.475936-2.737968 2.737968-5.475936 2.737967-2.737968a2475.122995 2475.122995 0 0 0-2.737967-169.75401l-2.737968-41.069519-2.737968-38.331551a19551.828877 19551.828877 0 0 0-5.475936-82.139037l-2.737968-43.807487v-38.331551a369.625668 369.625668 0 0 0-5.475936-46.545454v-19.165776l-2.737968-49.283422-2.737968-8.213904a82.139037 82.139037 0 0 0-2.737968-13.689839l-2.737968-10.951872v-5.475936h-2.737967v-2.737968l-2.737968-5.475936-2.737968-8.213903-2.737968-5.475936v-2.737968a1226.609626 1226.609626 0 0 1-10.951872-21.903744l-2.737968-5.475935v-8.213904l-2.737968-2.737968-2.737968-2.737968-2.737967-5.475936-2.737968-5.475936-2.737968-2.737967-2.737968-2.737968-2.737968-2.737968-2.737968-5.475936-2.737968-2.737968-2.737968-2.737968v-2.737968l-5.475936-2.737968-2.737968-2.737968-2.737968-2.737968-2.737967-2.737968-2.737968-2.737967v-2.737968l-5.475936-2.737968-2.737968-2.737968-5.475936-2.737968-2.737968-2.737968-2.737968-2.737968h-5.475936l-2.737968-2.737968s0-2.737968 0 0l-2.737967-2.737968h-2.737968l-2.737968-2.737968-5.475936-2.737968-5.475936-2.737968-8.213904-2.737967-5.475935-2.737968-8.213904-2.737968-8.213904-2.737968-8.213904-2.737968h-8.213903l-49.283423-2.737968-49.283422 2.737968m87.614973 62.973262l10.951872 2.737968 5.475935 2.737968h2.737968l5.475936 2.737968 5.475936 2.737968 5.475936 2.737968 5.475936 2.737967 2.737968 2.737968h2.737967v2.737968h2.737968l2.737968 2.737968h2.737968l2.737968 2.737968 2.737968 2.737968 2.737968 2.737968 2.737968 2.737968 2.737968 2.737968 2.737968 2.737968 2.737968 2.737968 2.737967 2.737967v2.737968c2.737968 0 2.737968 0 0 0l2.737968 2.737968v2.737968l2.737968 5.475936 2.737968 2.737968 5.475936 5.475936v2.737968l2.737968 5.475936 2.737968 5.475935 2.737968 5.475936 2.737968 5.475936 2.737968 8.213904 2.737968 5.475936 2.737967 13.689839 2.737968 5.475936 2.737968 13.68984 2.737968 27.379679a287.486631 287.486631 0 0 0 0 38.331551h2.737968v38.33155c0 46.545455 0 46.545455 5.475936 43.807487v35.593583c0 49.283422 0 46.545455 5.475936 46.545454v35.593583a18379.97861 18379.97861 0 0 0 8.213904 125.946524l2.737967 41.069519v38.331551l2.737968 2.737968v10.951871l-2.737968 2.737968h-10.951871l-5.475936 5.475936h-5.475936l-2.737968 5.475936h-5.475936l-5.475935 2.737968-5.475936 2.737968-5.475936 2.737968-5.475936 2.737968-5.475936 2.737968-5.475936 2.737967-5.475935 2.737968-5.475936 2.737968a27.379679 27.379679 0 0 0-5.475936 0l-2.737968 2.737968-2.737968 2.737968-8.213904 2.737968h-5.475935l-2.737968 2.737968-5.475936 2.737968-5.475936 2.737968-5.475936 2.737968-8.213904 2.737968s0 2.737968 0 0v2.737968h-8.213903l-2.737968 2.737967-5.475936 2.737968-5.475936 2.737968-5.475936 2.737968-5.475936 2.737968-2.737968 2.737968-8.213903 2.737968h-5.475936c-5.475936 0-5.475936 2.737968-5.475936 5.475936h-2.737968l-5.475936 2.737968h-2.737968l-2.737967 2.737968h-2.737968l-5.475936 2.737968-8.213904 2.737967-5.475936 2.737968-2.737968 2.737968-5.475936 2.737968-5.475935 2.737968-5.475936 2.737968-5.475936 2.737968-5.475936 2.737968-5.475936 2.737968-5.475936 2.737968h-5.475935l-8.213904 2.737968-5.475936 2.737968-5.475936 5.475935h-5.475936l-5.475935 2.737968-5.475936 2.737968-2.737968 2.737968-5.475936 2.737968-8.213904 2.737968s2.737968 0 0 0l-5.475936 2.737968-8.213903 2.737968-2.737968 2.737968-5.475936 2.737968-5.475936 2.737967-5.475936 2.737968h-5.475936l-5.475935 2.737968-5.475936 2.737968-5.475936 2.737968-5.475936 2.737968-8.213904 2.737968-2.737968 2.737968-5.475935 2.737968-8.213904 2.737968-5.475936 2.737968-5.475936 2.737968-5.475936 2.737967-2.737967 2.737968-5.475936 2.737968h-5.475936c-5.475936 0-5.475936 2.737968-5.475936 5.475936h-5.475936l-8.213904 2.737968-2.737967 2.737968-8.213904 2.737968-5.475936 2.737968-5.475936 2.737968-5.475936 2.737968-5.475936 2.737968-5.475935 2.737967-5.475936 2.737968-2.737968 2.737968-2.737968-202.609625a23970.909091 23970.909091 0 0 0-5.475936-235.465241v-2.737968l-2.737968-8.213904-2.737968-8.213903v-2.737968l-2.737968-8.213904a79.40107 79.40107 0 0 0 0-5.475936l-2.737967-2.737968-2.737968-5.475936a440.812834 440.812834 0 0 0-2.737968-8.213903l-2.737968-5.475936v-5.475936h-2.737968l-2.737968-8.213904-2.737968-5.475936-2.737968-8.213903v-2.737968l-5.475936-5.475936-2.737968-5.475936v-5.475936l-5.475935-5.475936v-2.737968l-2.737968-5.475935-2.737968-5.475936-2.737968-2.737968s-2.737968 0 0 0l-2.737968-2.737968a405.219251 405.219251 0 0 1-2.737968-5.475936l-2.737968-5.475936-2.737968-2.737968-2.737968-5.475935-2.737968-2.737968-2.737968-2.737968-2.737968-2.737968v-2.737968l-2.737967-2.737968-2.737968-5.475936v-2.737968l-2.737968-2.737968h-2.737968l-2.737968-8.213903-5.475936-2.737968v-2.737968l-2.737968-2.737968-2.737968-2.737968-2.737968-2.737968-2.737968-2.737968-2.737967-2.737968-2.737968-2.737968-2.737968-2.737968-2.737968-2.737968v-2.737967l-2.737968-2.737968-2.737968-2.737968h-2.737968l-2.737968-5.475936h-5.475936v-2.737968l-2.737968-2.737968-2.737968-2.737968-2.737967-2.737968-2.737968-2.737968-2.737968-2.737968-2.737968-2.737968v-2.737967h-8.213904v-2.737968l-5.475936-2.737968s-2.737968 0 0 0l-2.737968-5.475936h-2.737968l-2.737968-2.737968h-2.737967l5.475935-2.737968 8.213904-2.737968 8.213904-2.737968 8.213904-2.737968 5.475935-2.737968h5.475936l2.737968-2.737968h5.475936l8.213904-2.737967 8.213904-2.737968 5.475935-2.737968 8.213904-2.737968c5.475936 0 8.213904-2.737968 8.213904-5.475936h5.475936l8.213903-2.737968v-2.737968h5.475936l8.213904-2.737968 5.475936-2.737968h8.213904l2.737967-2.737968 5.475936-2.737967 8.213904-2.737968h-2.737968c0 2.737968 0 2.737968 0 0l8.213904-2.737968h8.213904v-2.737968l8.213903-2.737968h5.475936l8.213904-2.737968 8.213904-2.737968 5.475935-2.737968 8.213904-2.737968 8.213904-2.737968 5.475936-2.737968h2.737968v-2.737968h2.737968l8.213903-2.737967 8.213904-2.737968 5.475936-2.737968 8.213904-2.737968 8.213903-2.737968 8.213904-2.737968 5.475936-2.737968h8.213904l5.475936-2.737968 8.213903-2.737968 8.213904-2.737968 8.213904-2.737968 5.475936-2.737968 8.213903-2.737967 5.475936-2.737968 5.475936-2.737968 10.951872-2.737968 5.475936-2.737968 8.213903-2.737968 5.475936-2.737968h8.213904l8.213904-2.737968c5.475936 0 8.213904-2.737968 5.475935-5.475936h8.213904l8.213904-2.737968v-2.737967h5.475936c5.475936 0 13.68984-5.475936 8.213903-5.475936h5.475936l8.213904-2.737968 16.427808-2.737968c0-5.475936 2.737968-5.475936 43.807486-5.475936l41.069519 2.737968m-142.374332 180.705882l-5.475936 2.737968-8.213903 2.737968-8.213904 2.737968-8.213904 2.737968-5.475936 2.737968-2.737967 2.737968h-5.475936l-5.475936 2.737968v2.737968h-5.475936l-5.475936 2.737968-5.475936 2.737967-2.737968 2.737968-2.737967 2.737968-5.475936 2.737968s0 2.737968 0 0c2.737968 0 2.737968 0 0 0l-2.737968 2.737968-5.475936 2.737968-2.737968 2.737968-2.737968 2.737968v2.737968l-8.213904 8.213904h-2.737968l-2.737967 2.737967-2.737968 2.737968-2.737968 2.737968-2.737968 2.737968-2.737968 2.737968-2.737968 2.737968-2.737968 2.737968-2.737968 2.737968h-2.737968v21.903743a98.566845 98.566845 0 0 0 2.737968 21.903743l2.737968 16.427808 2.737968 19.165775 2.737968 16.427808 2.737968 19.165775 2.737968 16.427808 2.737968 19.165775 2.737968 16.427808 2.737967 19.165775 2.737968 19.165775v16.427808h2.737968l2.737968 16.427807v19.165776h2.737968v16.427807c0 13.68984 2.737968 19.165775 5.475936 19.165776v19.165775l2.737968 13.68984 2.737968 16.427807v13.68984h2.737968l2.737968 5.475936 2.737968 5.475935 2.737967 5.475936h10.951872c0 2.737968 2.737968 5.475936 10.951872 5.475936s13.68984-2.737968 10.951871-5.475936h10.951872v-2.737968l5.475936-2.737968 5.475936-2.737968 2.737968-2.737967 2.737968-8.213904 2.737967-8.213904v-10.951872l-2.737967-8.213903-2.737968-21.903744-2.737968-16.427807-2.737968-16.427808-2.737968-13.689839-2.737968-21.903744 10.951872-2.737967h10.951871v-2.737968h10.951872l10.951872-2.737968h2.737968l8.213903-2.737968 5.475936-2.737968 5.475936-2.737968 5.475936-2.737968 5.475936-2.737968h2.737968l2.737967-2.737968 8.213904-2.737968h2.737968v-2.737968h2.737968v-2.737968l5.475936-2.737967 2.737968-2.737968h2.737968l5.475936-5.475936h2.737967l2.737968-2.737968 2.737968-2.737968v-2.737968h5.475936l5.475936-5.475936 5.475936-5.475936h2.737968l2.737968-2.737967 2.737967-2.737968 2.737968-2.737968 2.737968-2.737968v-2.737968l2.737968-2.737968 2.737968-2.737968h2.737968l2.737968-2.737968 2.737968-2.737968 2.737968-2.737968 2.737968-5.475936 2.737968-5.475935 2.737968-2.737968 2.737967-10.951872 2.737968-5.475936 2.737968-8.213904 2.737968-8.213903v-10.951872l2.737968-8.213904 2.737968-2.737968 2.737968-2.737967v-21.903744l2.737968-2.737968a2168.470588 2168.470588 0 0 1-5.475936-32.855615l-2.737968-5.475936-2.737968-2.737967v-8.213904l-2.737968-5.475936-2.737968-5.475936-2.737968-2.737968-2.737967-2.737968-2.737968-8.213903-2.737968-2.737968h-2.737968l-2.737968-2.737968-2.737968-2.737968-2.737968-2.737968-2.737968-2.737968v-2.737968l-2.737968-2.737968-2.737968-2.737968-2.737968-2.737968-2.737968-2.737968-2.737967-2.737967-2.737968-2.737968h-2.737968c0-2.737968-2.737968-5.475936-8.213904-5.475936h-2.737968l-8.213904-2.737968-5.475935-2.737968-8.213904-2.737968-2.737968-2.737968h-2.737968v-2.737968h-10.951872l-10.951871-2.737968h-2.737968l-24.641712-2.737968h-24.641711l-2.737968 2.737968M104.247197 265.582888l-10.951871 2.737968-8.213904 2.737968-5.475936 2.737967-5.475936 2.737968-5.475935 2.737968-2.737968 2.737968-2.737968 2.737968-8.213904 2.737968-2.737968 2.737968-2.737968 2.737968-2.737968 2.737968-2.737968 2.737968-2.737968 2.737968-2.737968 2.737968-2.737967 2.737967-5.475936 8.213904-2.737968 2.737968v2.737968l-2.737968 5.475936-2.737968 5.475936-2.737968 5.475935-2.737968 5.475936c-2.737968-2.737968-5.475936 8.213904-2.737968 13.68984-2.737968-2.737968-5.475936 2.737968-5.475936 8.213904l-2.737967 10.951871-2.737968 13.68984v8.213904l-2.737968 232.727272a4046.716578 4046.716578 0 0 0 8.213903 243.679145l2.737968 2.737968 2.737968 2.737968 2.737968 2.737967 2.737968 2.737968 8.213904 2.737968 2.737968 2.737968h2.737968l5.475935 2.737968 5.475936 2.737968 5.475936 2.737968 8.213904 2.737968 8.213904 2.737968 5.475935 2.737968 5.475936 2.737968 5.475936 2.737968h8.213904l5.475936 2.737967v2.737968h5.475936c5.475936 0 8.213904 2.737968 8.213903 5.475936h5.475936l5.475936 2.737968 5.475936 2.737968 8.213903 2.737968 8.213904 2.737968 5.475936 2.737968 5.475936 2.737968 5.475936 2.737968 8.213903 2.737967h5.475936l8.213904 5.475936h5.475936l5.475936 2.737968 5.475936 2.737968 10.951871 2.737968 2.737968 2.737968 2.737968 2.737968h5.475936c2.737968 0 5.475936 0 2.737968 2.737968l10.951871 2.737968 5.475936 2.737968 5.475936 2.737968h5.475936c0 2.737968 2.737968 5.475936 8.213904 5.475935l8.213903 2.737968 2.737968 2.737968h5.475936l10.951872 5.475936h5.475936l5.475935 2.737968 5.475936 2.737968 8.213904 2.737968 5.475936 2.737968 5.475936 2.737968 5.475936 2.737968 8.213903 2.737967h5.475936c0 5.475936 2.737968 5.475936 5.475936 5.475936l8.213904 2.737968 5.475935 2.737968h8.213904l19.165776 2.737968 19.165775-2.737968h2.737968l2.737968-2.737968 2.737968-2.737968 2.737968-8.213903 2.737968-2.737968 2.737968-2.737968a83165.775401 83165.775401 0 0 0-5.475936-476.406417l-2.737968-16.427808-2.737968-13.689839-2.737968-5.475936-2.737968-10.951872-2.737968-5.475936-2.737968-5.475936v-2.737968l-2.737968-2.737967-2.737968-5.475936-2.737968-8.213904v-2.737968c-2.737968 0-5.475936-2.737968-5.475935-8.213904h-2.737968l-2.737968-2.737968-2.737968-8.213903-2.737968-2.737968v-5.475936l-5.475936-5.475936-2.737968-5.475936-2.737968-5.475936-2.737968-2.737967v-2.737968h-2.737968l-2.737967-2.737968-2.737968-5.475936-2.737968-2.737968-2.737968-5.475936h-2.737968l-2.737968-2.737968-2.737968-5.475936v-2.737968l-5.475936-2.737967-2.737968-5.475936-2.737968-2.737968-2.737967-2.737968-2.737968-2.737968-2.737968-2.737968v-2.737968l-2.737968-2.737968-2.737968-2.737968-2.737968-2.737968h-2.737968l-2.737968-2.737968-2.737968-2.737967-2.737968-2.737968-2.737968-2.737968-2.737968-2.737968-2.737967-2.737968h-2.737968l-2.737968-2.737968-2.737968-2.737968-2.737968-2.737968-2.737968-2.737968-2.737968-2.737968-2.737968-2.737968-5.475936-2.737967h-2.737968v-2.737968h-5.475935l-2.737968-2.737968-5.475936-2.737968-2.737968-2.737968-2.737968-2.737968-5.475936-2.737968-5.475936-2.737968-2.737968-2.737968-5.475935-2.737968-5.475936-2.737968-8.213904-2.737968-5.475936-2.737967-13.689839-2.737968-10.951872-2.737968-2.737968-2.737968H106.985165l-2.737968 2.737968m703.657754 52.02139l5.475936 2.737968 8.213904 2.737968 2.737968 2.737968h2.737968l2.737968 2.737968 2.737968 2.737968h2.737968v2.737968l2.737968 2.737967 2.737967 2.737968 2.737968 5.475936 2.737968 5.475936h2.737968v60.235294h-2.737968l-2.737968 8.213904-2.737968 5.475936-2.737967 5.475936-2.737968 2.737967-2.737968 2.737968-2.737968 2.737968-2.737968 2.737968-2.737968 2.737968-2.737968 2.737968-2.737968 2.737968v2.737968l-2.737968 2.737968-2.737968 2.737968-2.737968 2.737968-2.737968 2.737968h-2.737967l-2.737968 2.737967h-5.475936 2.737968v2.737968h-5.475936l-2.737968 2.737968-5.475936 2.737968-5.475936 2.737968-2.737968 2.737968-8.213903 2.737968-8.213904 2.737968-2.737968 2.737968h-30.117647l-2.737968-2.737968-2.737968-2.737968-2.737968-5.475936-5.475936-5.475936v-10.951871l-2.737968-19.165776v-5.475936l-2.737967-16.427807-2.737968-21.903743-2.737968-16.427808-2.737968-19.165775v-2.737968l-2.737968-5.475936 2.737968-8.213904 2.737968-2.737968 2.737968-2.737968 2.737968-2.737968h2.737967-2.737967l2.737967-2.737967h2.737968c0-2.737968 0-5.475936 5.475936-5.475936l2.737968-2.737968h5.475936l5.475936-5.475936h5.475936l10.951871-2.737968c-2.737968-2.737968 2.737968-2.737968 27.379679-2.737968h27.37968l2.737967 2.737968m-668.064171 8.213904l19.165776 2.737968 19.165775 2.737968 2.737968 2.737968c0-2.737968 2.737968 0 0 0h8.213904l8.213904 2.737967 5.475935 2.737968h5.475936l2.737968 5.475936 2.737968 2.737968 5.475936 2.737968 5.475936 2.737968 2.737968 2.737968 5.475935 5.475936 8.213904 5.475936s0 2.737968 0 0l2.737968 2.737967h2.737968l2.737968 2.737968 2.737968 2.737968 2.737968 2.737968 2.737968 2.737968 2.737968 2.737968v2.737968l5.475935 2.737968v2.737968l2.737968 2.737968 2.737968 2.737968 2.737968 2.737968h2.737968l2.737968 2.737967 2.737968 2.737968 2.737968 2.737968 2.737968 2.737968 2.737968 2.737968 2.737968 5.475936 2.737967 5.475936 2.737968 2.737968 2.737968 2.737968v2.737967l2.737968 2.737968 2.737968 2.737968 2.737968 5.475936 2.737968 2.737968 2.737968 2.737968 2.737968 2.737968v2.737968h2.737968v5.475936l2.737968 2.737968 2.737968 2.737967 2.737967 8.213904 2.737968 2.737968 2.737968 5.475936 2.737968 5.475936 2.737968 5.475936 2.737968 13.689839h2.737968v8.213904l2.737968 8.213904c2.737968-5.475936 2.737968 2.737968 2.737968 8.213903l2.737968 8.213904 2.737968 205.347594a8402.823529 8402.823529 0 0 1-8.213904 199.871657l-5.475936-2.737967-8.213904-2.737968-5.475936-2.737968-5.475935-2.737968-5.475936-2.737968-8.213904-2.737968h-5.475936l-8.213904-2.737968-5.475935-2.737968-5.475936-2.737968-8.213904-2.737968-5.475936-2.737968-8.213904-2.737967-5.475935-2.737968-5.475936-2.737968-2.737968-2.737968-10.951872-2.737968-5.475936-2.737968h-5.475935v-2.737968h-2.737968l-5.475936-2.737968-5.475936-2.737968-8.213904-2.737968h-2.737968l-2.737968-2.737968h-8.213903l-5.475936-2.737968c2.737968-2.737968-2.737968-2.737968-5.475936-2.737967l-5.475936-2.737968-8.213904-2.737968-5.475935-2.737968-5.475936-2.737968-5.475936-2.737968-10.951872-2.737968h-2.737968l-8.213903-5.475936h-5.475936c2.737968-2.737968-2.737968-5.475936-8.213904-5.475936h-5.475936l-5.475936-2.737968-5.475935-2.737967-2.737968-2.737968h-5.475936l-5.475936-2.737968-5.475936-2.737968-10.951871-2.737968-2.737968-2.737968h-2.737968a46753.540107 46753.540107 0 0 1 8.213903-449.026738l2.737968-2.737968v-8.213904l2.737968-2.737968 2.737968-2.737967 2.737968-8.213904 2.737968-2.737968 2.737968-5.475936 2.737968-2.737968 2.737968-2.737968v-5.475936h2.737968l2.737968-2.737968 5.475935-2.737967 5.475936-2.737968 8.213904-2.737968 10.951872-2.737968h10.951871m-27.379679 194.395722l-2.737968 2.737968v2.737968l-8.213903 8.213903-2.737968 2.737968-2.737968 16.427808c0 13.68984 0 19.165775 2.737968 16.427807l2.737968 5.475936h2.737967l2.737968 2.737968 2.737968 2.737968 8.213904 2.737968 5.475936 2.737968 5.475936 2.737968 8.213903 2.737968h5.475936c0 2.737968 2.737968 5.475936 8.213904 5.475935h5.475936l8.213904 2.737968 5.475935 2.737968c-2.737968 0-2.737968 0 0 0l2.737968 2.737968h5.475936l5.475936 2.737968 8.213904 2.737968 5.475936 2.737968 5.475935 2.737968 5.475936 2.737968h2.737968l2.737968 2.737968h8.213904l2.737968 2.737967 13.689839 2.737968c-2.737968 2.737968 2.737968 5.475936 5.475936 5.475936l5.475936 2.737968 19.165775 2.737968h13.68984l2.737968-2.737968 2.737968-2.737968 5.475936-2.737968 2.737967-5.475936 2.737968-2.737967c-2.737968 0 0 0 0 0l2.737968-5.475936v-10.951872l-2.737968-8.213904v-8.213903l-2.737968-5.475936-2.737967-2.737968-5.475936-2.737968-2.737968-2.737968h-5.475936l-8.213904-2.737968-2.737968-2.737968-10.951871-2.737968-5.475936-2.737968-8.213904-2.737968-5.475936-2.737967-5.475936-2.737968-8.213903-2.737968-8.213904-2.737968-5.475936-2.737968v-2.737968l-13.689839-2.737968h-5.475936l-10.951872-5.475936h-5.475936l-5.475936-2.737968-2.737968-2.737968h-5.475935l-5.475936-2.737968-8.213904-2.737967-5.475936-2.737968c-2.737968-2.737968-27.379679-5.475936-30.117647-2.737968m0 134.160428l-2.737968 2.737967h-2.737968l-2.737968 5.475936-2.737967 2.737968-2.737968 2.737968-2.737968 16.427808 2.737968 13.689839 2.737968 2.737968v5.475936l2.737967 2.737968 5.475936 2.737968 2.737968 2.737968h2.737968l8.213904 2.737968 8.213904 2.737967 5.475935 2.737968 5.475936 2.737968 2.737968 2.737968h5.475936l5.475936 2.737968h2.737968v2.737968h5.475936l8.213903 2.737968 5.475936 2.737968 8.213904 2.737968 5.475936 2.737968 8.213903 2.737968 5.475936 2.737968 8.213904 2.737967 5.475936 2.737968h8.213904l8.213903 2.737968 2.737968 2.737968 10.951872 2.737968 5.475936 2.737968v2.737968h27.379679l2.737968-2.737968 2.737968-2.737968 5.475936-2.737968 2.737967-2.737968h2.737968v-8.213903l2.737968-8.213904v-16.427808l-5.475936-5.475936v-2.737967l-2.737967-2.737968-2.737968-2.737968-5.475936-2.737968-5.475936-2.737968-5.475936-2.737968-5.475936-2.737968h-2.737968l-5.475935-2.737968-8.213904-2.737968h-5.475936l-5.475936-2.737968-8.213904-2.737968-5.475935-2.737967-2.737968-2.737968-13.68984-2.737968-5.475936-2.737968-5.475936-2.737968-8.213903-2.737968-5.475936-2.737968-8.213904-2.737968-5.475936-2.737968-8.213903-2.737968-5.475936-2.737968h-2.737968v-2.737968h-10.951872l-2.737968-2.737967H112.461101" p-id="6395"></path></svg>