<?xml version="1.0" standalone="no"?><!DOCTYPE svg PUBLIC "-//W3C//DTD SVG 1.1//EN" "http://www.w3.org/Graphics/SVG/1.1/DTD/svg11.dtd"><svg t="1571282195257" class="icon" viewBox="0 0 1024 1024" version="1.1" xmlns="http://www.w3.org/2000/svg" p-id="3979" xmlns:xlink="http://www.w3.org/1999/xlink" width="64" height="64"><defs><style type="text/css"></style></defs><path d="M512 568.888889a227.555556 227.555556 0 1 0 0-455.111111 227.555556 227.555556 0 0 0 0 455.111111z m0 56.888889A284.444444 284.444444 0 1 1 512 56.888889a284.444444 284.444444 0 0 1 0 568.888889z m-455.111111 398.222222a455.111111 455.111111 0 1 1 910.222222 0h-56.888889a398.222222 398.222222 0 0 0-796.444444 0H56.888889z m56.888889 0H56.888889a455.111111 455.111111 0 1 1 910.222222 0h-56.888889a398.222222 398.222222 0 0 0-796.444444 0z" p-id="3980"></path></svg>