<?xml version="1.0" encoding="UTF-8"?>
<svg width="14px" height="14px" viewBox="0 0 14 14" version="1.1" xmlns="http://www.w3.org/2000/svg" xmlns:xlink="http://www.w3.org/1999/xlink">
    <title>政策</title>
    <g id="搜索引擎" stroke="none" stroke-width="1" fill="none" fill-rule="evenodd">
        <g id="搜索结果_综合" transform="translate(-320.000000, -122.000000)">
            <g id="编组-9" transform="translate(320.000000, 119.000000)">
                <g id="政策" transform="translate(0.000000, 3.000000)">
                    <rect id="矩形" x="0" y="0" width="14" height="14"></rect>
                    <g transform="translate(1.000000, 0.000000)" fill="#666666" fill-rule="nonzero" id="形状">
                        <path d="M1.84798271,11.8953333 L10.1476945,11.8953333 C10.6368546,11.8953333 11.10598,11.6986672 11.4518684,11.3485993 C11.7977568,10.9985314 11.9920749,10.5237374 11.9920749,10.0286667 L11.9920749,1.86666666 C11.9920749,0.835735132 11.1663177,0 10.1476945,0 L1.84798271,0 C0.829359542,0 0.00360230998,0.835735132 0.00360230998,1.86666666 L0.00360230998,11.6666667 C0.00360230998,12.9553311 1.03579885,14 2.30907781,14 L11.5309798,14 C11.7856356,14 11.9920749,13.7910662 11.9920749,13.5333333 C11.9920749,13.2756004 11.7856356,13.0666667 11.5309798,13.0666667 L2.30907781,13.0666667 C1.54511043,13.0666667 0.925792503,12.4398653 0.925792503,11.6666667 L0.925792503,11.6386667 C1.20554224,11.8048023 1.52363422,11.8933346 1.84798271,11.8953333 L1.84798271,11.8953333 Z M1.84798271,0.933333338 L10.1476945,0.933333338 C10.6570061,0.933333338 11.0698847,1.3512009 11.0698847,1.86666666 L11.0698847,10.0286667 C11.0698847,10.5441324 10.6570061,10.962 10.1476945,10.962 L1.84798271,10.962 C1.33867112,10.962 0.925792503,10.5441324 0.925792503,10.0286667 L0.925792503,1.86666666 C0.925792503,1.3512009 1.33867113,0.933333338 1.84798271,0.933333338 Z M7.63011527,8.71266666 C7.55599415,8.71152723 7.48323709,8.69231778 7.41801153,8.65666666 L5.99783862,7.90533334 L4.5776657,8.65666666 C4.42321282,8.73954751 4.23573136,8.72689772 4.09351585,8.624 C3.94744896,8.51810078 3.87546722,8.33597199 3.90907781,8.15733334 L4.18112392,6.55666666 L3.03299712,5.432 C2.9089762,5.30810413 2.86456366,5.12402975 2.91820485,4.95622629 C2.97184604,4.78842283 3.11437599,4.66556066 3.28659942,4.63866666 L4.87276658,4.40533334 L5.58285303,2.94933334 C5.65989576,2.78833785 5.82109045,2.68608195 5.99783862,2.68608195 C6.17458679,2.68608195 6.33578147,2.78833785 6.41282421,2.94933334 L7.12291066,4.40533334 L8.70907781,4.63866666 C8.88130124,4.66556066 9.0238312,4.78842283 9.07747238,4.95622629 C9.13111357,5.12402975 9.08670104,5.30810413 8.96268011,5.432 L7.81455331,6.566 L8.08659942,8.16666666 C8.12021002,8.34530532 8.04822828,8.52743411 7.90216139,8.63333334 C7.82194313,8.68799655 7.72677361,8.71574962 7.63011527,8.71266666 L7.63011527,8.71266666 Z M5.99783862,6.91133334 C6.07313476,6.91027761 6.14754054,6.92790214 6.21455332,6.96266666 L7.02146974,7.392 L6.86469741,6.482 C6.84014086,6.33120932 6.89009107,6.17780474 6.99841498,6.07133334 L7.64855907,5.42733334 L6.74942363,5.292 C6.60041141,5.2701816 6.4713102,5.17610555 6.4036023,5.04 L5.99783862,4.2 L5.59668588,5.03066666 C5.52807732,5.16800912 5.39697478,5.26228652 5.24625361,5.28266666 L4.34711816,5.418 L4.99726225,6.06666666 C5.10558617,6.17313807 5.15553638,6.32654265 5.13097982,6.47733334 L4.97420749,7.38733334 L5.78112391,6.958 C5.84854079,6.92484887 5.92292644,6.9088309 5.99783862,6.91133334 L5.99783862,6.91133334 Z"></path>
                    </g>
                </g>
            </g>
        </g>
    </g>
</svg>