<?xml version="1.0" standalone="no"?><!DOCTYPE svg PUBLIC "-//W3C//DTD SVG 1.1//EN" "http://www.w3.org/Graphics/SVG/1.1/DTD/svg11.dtd"><svg t="1573720141226" class="icon" viewBox="0 0 1024 1024" version="1.1" xmlns="http://www.w3.org/2000/svg" p-id="9864" xmlns:xlink="http://www.w3.org/1999/xlink" width="128" height="128"><defs><style type="text/css"></style></defs><path d="M647.149073 372.73519zM280.58749 306.801525zM271.136234 287.142789a121.026424 121.026424 0 0 1-5.120625 6.426363 42.756803 42.756803 0 0 0 5.120625-6.426363z" p-id="9865"></path><path d="M920.272567 211.697493L774.624373 56.211233a10.234085 10.234085 0 0 0-7.468089-3.237741H140.513244c-24.278963 0-44.030819 19.751856-44.030819 44.030819v827.434136c0 24.278963 19.751856 44.029796 44.030819 44.029796h322.790684c5.65172 0 10.233062-4.582365 10.233062-10.233062s-4.581342-10.233062-10.233062-10.233062H140.513244c-12.993942 0-23.564695-10.570753-23.564695-23.563672V97.004311c0-12.993942 10.570753-23.564695 23.564695-23.564695h616.411001v147.763368c0 5.65172 4.582365 10.233062 10.233062 10.233062h135.415133v326.264809c0 5.650697 4.582365 10.233062 10.233062 10.233062s10.233062-4.582365 10.233062-10.233062V218.692814a10.227945 10.227945 0 0 0-2.765997-6.995321zM777.390369 89.100294l114.16004 121.870652h-114.16004V89.100294z" p-id="9866"></path><path d="M738.118947 325.606823h-472.102314c-5.65172 0-10.233062-4.581342-10.233062-10.233062s4.581342-10.233062 10.233062-10.233062h472.102314c5.650697 0 10.233062 4.581342 10.233062 10.233062s-4.582365 10.233062-10.233062 10.233062zM738.118947 486.628146h-472.102314c-5.65172 0-10.233062-4.581342-10.233062-10.233062s4.581342-10.233062 10.233062-10.233062h472.102314c5.650697 0 10.233062 4.581342 10.233062 10.233062s-4.582365 10.233062-10.233062 10.233062zM498.0288 647.650493H266.016633c-5.65172 0-10.233062-4.582365-10.233062-10.233062s4.581342-10.233062 10.233062-10.233062h232.013191c5.650697 0 10.233062 4.582365 10.233062 10.233062s-4.582365 10.233062-10.234086 10.233062zM912.443251 790.375102L749.393735 630.182656l-0.00307-0.00307-0.063445-0.061398c-0.072655-0.071631-0.151449-0.132006-0.226151-0.200568-0.163729-0.151449-0.326435-0.302899-0.499373-0.443092-0.118704-0.096191-0.242524-0.181125-0.363274-0.272199-0.145309-0.10847-0.289596-0.217964-0.441045-0.318248-0.13917-0.092098-0.282433-0.173962-0.424672-0.257874-0.144286-0.085958-0.286526-0.172939-0.434905-0.251733-0.146333-0.077771-0.296759-0.145309-0.446161-0.214894-0.153496-0.071631-0.304945-0.145309-0.462535-0.209778-0.147356-0.060375-0.296759-0.110517-0.445138-0.162706-0.165776-0.059352-0.331551-0.119727-0.50142-0.170892-0.148379-0.044002-0.297782-0.077771-0.447185-0.11461-0.173962-0.042979-0.345877-0.089028-0.522909-0.12382-0.161682-0.031722-0.325411-0.051165-0.488117-0.074701-0.166799-0.023536-0.331551-0.052189-0.500397-0.068562-0.198521-0.01842-0.397043-0.022513-0.595564-0.029676-0.12382-0.004093-0.245593-0.01842-0.37146-0.018419l-0.041956 0.002046a10.130731 10.130731 0 0 0-0.705058 0.035816c-0.281409 0.020466-0.557702 0.054235-0.831948 0.096191-0.150426 0.023536-0.301875 0.038886-0.451278 0.068561-0.201591 0.040932-0.397043 0.097214-0.593517 0.149403-0.125867 0.033769-0.252757 0.059352-0.3776 0.097214-0.176009 0.054235-0.344854 0.121773-0.51677 0.185218-0.143263 0.052189-0.287549 0.098237-0.428765 0.156566-0.146333 0.061398-0.285502 0.135076-0.428766 0.202615-0.159636 0.075725-0.322341 0.146333-0.478907 0.230244-0.121773 0.065492-0.237407 0.143263-0.356111 0.213871-0.168846 0.100284-0.338714 0.194428-0.502443 0.304945-0.124843 0.083911-0.239454 0.179079-0.360204 0.268106a10.194176 10.194176 0 0 0-0.645706 0.51677c-0.181125 0.158612-0.363274 0.316202-0.533142 0.487094-0.00921 0.00921-0.019443 0.016373-0.02763 0.025582L576.560388 790.482549c-3.971451 4.021593-3.932566 10.500145 0.088004 14.472619a10.202363 10.202363 0 0 0 7.191796 2.953262 10.202363 10.202363 0 0 0 7.279801-3.041266L731.923852 662.33596V948.884209c0 5.650697 4.582365 10.233062 10.233062 10.233061s10.233062-4.582365 10.233062-10.233061V661.816121l145.708569 143.157467c4.031826 3.961218 10.512425 3.903913 14.471596-0.12689 3.961218-4.03285 3.903913-10.511401-0.12689-14.471596z" p-id="9867"></path></svg>