<?xml version="1.0" standalone="no"?><!DOCTYPE svg PUBLIC "-//W3C//DTD SVG 1.1//EN" "http://www.w3.org/Graphics/SVG/1.1/DTD/svg11.dtd"><svg t="1613974665166" class="icon" viewBox="0 0 1024 1024" version="1.1" xmlns="http://www.w3.org/2000/svg" p-id="1628" xmlns:xlink="http://www.w3.org/1999/xlink" width="16" height="16"><defs><style type="text/css"></style></defs><path d="M910.222222 34.133333H113.777778A79.644444 79.644444 0 0 0 34.133333 113.777778v796.444444A79.644444 79.644444 0 0 0 113.777778 989.866667h796.444444a79.644444 79.644444 0 0 0 79.644445-79.644445V113.777778A79.644444 79.644444 0 0 0 910.222222 34.133333zM113.777778 79.644444h796.444444a34.133333 34.133333 0 0 1 34.133334 34.133334v796.444444a34.133333 34.133333 0 0 1-34.133334 34.133334H113.777778a34.133333 34.133333 0 0 1-34.133334-34.133334V113.777778a34.133333 34.133333 0 0 1 34.133334-34.133334z" p-id="1629"></path><path d="M847.075556 177.208889a22.755556 22.755556 0 0 1 28.728888 25.713778l-1.137777 4.039111-228.238223 620.885333a22.755556 22.755556 0 0 1-29.013333 13.653333l-4.209778-2.104888-179.768889-110.250667a22.755556 22.755556 0 0 1 19.626667-40.789333l4.152889 1.991111 156.046222 95.744 203.207111-552.789334L207.701333 407.893333l95.914667 136.362667a22.755556 22.755556 0 0 1 4.152889 13.425778l-0.568889 4.778666-37.205333 162.190223 296.391111-254.862223a22.755556 22.755556 0 0 1 28.785778-0.739555l3.356444 3.185778a22.755556 22.755556 0 0 1 0.739556 28.785777l-3.185778 3.299556-348.842667 300.032a22.755556 22.755556 0 0 1-37.660444-18.204444l0.568889-4.152889 50.403555-219.875556-108.487111-154.168889a22.755556 22.755556 0 0 1 8.078222-33.28l4.266667-1.706666 682.666667-195.697778z" p-id="1630"></path></svg>