<?xml version="1.0" standalone="no"?><!DOCTYPE svg PUBLIC "-//W3C//DTD SVG 1.1//EN" "http://www.w3.org/Graphics/SVG/1.1/DTD/svg11.dtd"><svg t="1562036107237" class="icon" viewBox="0 0 1166 1024" version="1.1" xmlns="http://www.w3.org/2000/svg" p-id="10813" xmlns:xlink="http://www.w3.org/1999/xlink" width="72.875" height="64"><defs><style type="text/css"></style></defs><path d="M786.708653 588.189322a75.219992 75.219992 0 0 0-74.83226 74.832261 75.219992 75.219992 0 0 0 74.83226 74.444528 75.219992 75.219992 0 0 0 74.832261-74.83226 75.219992 75.219992 0 0 0-74.832261-74.832261m0 222.558122a147.725861 147.725861 0 0 1-147.725861-147.725861 147.725861 147.725861 0 0 1 147.725861-147.725862 147.725861 147.725861 0 0 1 147.725862 147.725862 147.725861 147.725861 0 0 1-147.725862 147.725861m89.178342 101.973495h2.326391l71.342674-38.773192a122.135555 122.135555 0 0 1-9.693298-43.813707A113.605452 113.605452 0 0 1 1047.264503 716.140856a342.755017 342.755017 0 0 0 5.428247-51.568346A343.142749 343.142749 0 0 0 1047.264503 613.004165a113.605452 113.605452 0 0 1-107.401741-113.21772 122.523287 122.523287 0 0 1 9.693298-43.813707l-70.179478-38.773192h-2.714123a196.580083 196.580083 0 0 1-25.978039 21.712987 108.177206 108.177206 0 0 1-60.873911 22.876183 108.177206 108.177206 0 0 1-61.261644-23.263915 193.86596 193.86596 0 0 1-25.978038-22.100719h-2.714124l-72.893601 38.773192a122.523287 122.523287 0 0 1 9.693298 43.813707 113.605452 113.605452 0 0 1-107.789473 113.21772 344.693677 344.693677 0 0 0-5.428247 51.568346 341.204089 341.204089 0 0 0 5.428247 51.568345 113.605452 113.605452 0 0 1 107.789473 113.605452 120.584627 120.584627 0 0 1-9.693298 43.813707l69.016282 38.773192H698.305776a200.069671 200.069671 0 0 1 26.36577-23.263915 108.177206 108.177206 0 0 1 62.424839-24.427111 107.789474 107.789474 0 0 1 62.812571 24.814843 203.94699 203.94699 0 0 1 26.365771 23.651647m22.488451 108.177206a48.854222 48.854222 0 0 1-35.671337-15.121545 139.971223 139.971223 0 0 0-77.546383-46.527831 141.909883 141.909883 0 0 0-77.546384 45.364635 48.46649 48.46649 0 0 1-35.283605 15.121545 44.589171 44.589171 0 0 1-18.2234-3.877319l-92.667929-51.568346a44.589171 44.589171 0 0 1-14.733813-53.507004 111.279061 111.279061 0 0 0 8.530102-38.773192 98.096176 98.096176 0 0 0-98.096176-98.096176h-3.877319c-15.509277 0-28.30443-13.958349-32.181749-34.895873a473.420674 473.420674 0 0 1-7.754639-74.056797 476.522529 476.522529 0 0 1 7.754639-74.056796c4.265051-21.712988 17.060204-35.283605 32.957213-34.895873h3.101855a98.096176 98.096176 0 0 0 98.096176-98.096176 111.666793 111.666793 0 0 0-8.530102-38.773192 44.201439 44.201439 0 0 1 15.121545-53.507005l97.708444-53.507005a44.976903 44.976903 0 0 1 17.835668-3.489587 49.629686 49.629686 0 0 1 35.671336 14.733813 139.195759 139.195759 0 0 0 77.546384 43.425975 139.195759 139.195759 0 0 0 77.546384-42.650511 49.629686 49.629686 0 0 1 35.283605-14.346081 45.752367 45.752367 0 0 1 18.2234 3.489587l94.218857 52.343809a44.201439 44.201439 0 0 1 14.733813 53.507005 111.279061 111.279061 0 0 0-8.530103 38.773192 98.096176 98.096176 0 0 0 98.096176 98.096176h3.101856c15.897009 0 28.692162 13.570617 32.957213 34.895873a478.461189 478.461189 0 0 1 7.754638 74.056796 469.931087 469.931087 0 0 1-7.754638 74.056797c-3.877319 21.712988-17.060204 35.283605-32.569482 34.895873h-3.101855a98.096176 98.096176 0 0 0-98.096176 98.096176 111.279061 111.279061 0 0 0 8.530103 38.773192 44.201439 44.201439 0 0 1-15.121545 53.507004l-96.157516 53.119273a44.589171 44.589171 0 0 1-17.835669 3.489588z m221.782658-704.508898a48.854222 48.854222 0 0 1-24.427111 42.262779 48.854222 48.854222 0 0 1-48.854222 0 48.854222 48.854222 0 0 1-24.427111-42.262779v-193.86596a24.427111 24.427111 0 0 0-24.427111-24.427111H121.748411a24.427111 24.427111 0 0 0-24.427111 24.427111v584.312003a24.427111 24.427111 0 0 0 24.427111 24.427111h219.068535a48.854222 48.854222 0 0 1 42.262779 24.427111 48.854222 48.854222 0 0 1 0 48.854222 48.854222 48.854222 0 0 1-42.262779 24.42711H48.85481a48.854222 48.854222 0 0 1-34.508141-14.346081 48.854222 48.854222 0 0 1-14.346081-34.50814V48.854222A48.854222 48.854222 0 0 1 48.85481 0h1022.449072a48.854222 48.854222 0 0 1 34.508141 14.346081 48.854222 48.854222 0 0 1 14.346081 34.508141z m-900.701249 659.144263a48.854222 48.854222 0 0 1 48.854222-48.854222h193.865959a48.854222 48.854222 0 0 1 42.26278 24.427111 48.854222 48.854222 0 0 1 0 48.854222 48.854222 48.854222 0 0 1-42.26278 24.427111h-193.865959a48.854222 48.854222 0 0 1-34.508141-14.346081 48.854222 48.854222 0 0 1-14.346081-34.508141z m0 0" fill="" p-id="10814"></path></svg>