<?xml version="1.0" standalone="no"?><!DOCTYPE svg PUBLIC "-//W3C//DTD SVG 1.1//EN" "http://www.w3.org/Graphics/SVG/1.1/DTD/svg11.dtd"><svg t="1613974592235" class="icon" viewBox="0 0 1024 1024" version="1.1" xmlns="http://www.w3.org/2000/svg" p-id="1374" xmlns:xlink="http://www.w3.org/1999/xlink" width="16" height="16"><defs><style type="text/css"></style></defs><path d="M910.222222 34.133333H113.777778A79.644444 79.644444 0 0 0 34.133333 113.777778v796.444444A79.644444 79.644444 0 0 0 113.777778 989.866667h796.444444a79.644444 79.644444 0 0 0 79.644445-79.644445V113.777778A79.644444 79.644444 0 0 0 910.222222 34.133333zM113.777778 79.644444h796.444444a34.133333 34.133333 0 0 1 34.133334 34.133334v796.444444a34.133333 34.133333 0 0 1-34.133334 34.133334H113.777778a34.133333 34.133333 0 0 1-34.133334-34.133334V113.777778a34.133333 34.133333 0 0 1 34.133334-34.133334z" p-id="1375"></path><path d="M486.798222 241.948444l0.455111 4.323556-2.901333 135.566222v5.404445l9.102222-0.284445c259.811556-6.030222 401.351111 125.155556 418.190222 387.185778l0.910223 16.497778 0.568889 15.018666c0.568889 22.755556-30.378667 30.663111-41.130667 10.581334l-4.892445-8.419556a299.804444 299.804444 0 0 0-3.242666-5.12l-3.640889-5.518222-7.68-11.093333a459.264 459.264 0 0 0-59.733333-68.266667c-81.066667-75.889778-174.421333-109.112889-279.153778-95.232l-15.758222 2.446222-10.695112-0.341333v139.946667a21.788444 21.788444 0 0 1-28.103111 20.593777L455.111111 783.587556l-3.185778-2.048-332.686222-259.185778a21.333333 21.333333 0 0 1-3.299555-30.606222l3.299555-3.185778 332.686222-259.185778c13.084444-10.24 31.857778-2.616889 34.872889 12.515556z m-43.235555 48.583112l-219.875556 167.822222-58.140444 45.283555 172.487111 138.012445 105.528889 82.204444 0.056889-113.948444c0-6.997333 3.413333-13.425778 9.102222-17.464889l3.697778-2.104889 3.697777-1.308444c137.272889-33.962667 259.982222 1.422222 362.666667 97.564444 9.955556 9.272889 19.456 18.944 28.558222 29.013333l12.060445 13.824-0.568889-4.835555c-29.013333-202.353778-149.105778-299.121778-365.966222-294.684445l-16.042667 0.568889-14.051556 0.682667a21.788444 21.788444 0 0 1-22.698666-16.952889l-0.455111-4.551111-0.056889-119.125333z" p-id="1376"></path></svg>